 <svg  version="1.0" xmlns="http://www.w3.org/2000/svg"  width="240.000000pt" height="240.000000pt" viewBox="0 0 240.000000 240.000000"  preserveAspectRatio="xMidYMid meet">  <g transform="translate(0.000000,240.000000) scale(0.050000,-0.050000)" fill="#738391" stroke="none"> <path d="M2038 4760 c-729 -84 -1430 -511 -1832 -1115 -151 -228 -247 -465 -188 -465 47 0 82 28 83 67 2 42 2 42 19 3 15 -35 17 -34 19 15 1 40 11 55 39 55 26 0 46 22 61 68 13 38 37 74 54 80 17 7 26 25 20 41 -6 16 -4 31 4 35 9 3 55 60 104 126 48 66 133 165 188 219 56 55 98 108 95 118 -3 10 20 12 50 5 32 -8 45 -6 31 3 -40 27 380 325 458 325 20 0 37 8 37 18 0 31 131 102 189 102 30 0 48 9 41 20 -16 26 22 26 71 0 30 -17 36 -15 27 8 -8 22 12 32 85 41 54 6 133 21 177 32 161 42 293 71 356 77 9 1 12 9 7 17 -5 8 53 13 129 11 77 -2 138 4 138 15 0 29 39 23 73 -11 16 -16 50 -30 74 -30 25 0 54 -7 64 -17 10 -9 57 -27 104 -40 47 -14 85 -33 85 -44 0 -10 32 -19 70 -19 39 0 70 -9 70 -20 0 -11 14 -20 32 -20 21 0 28 11 20 32 -11 28 -2 30 63 16 41 -9 108 -17 148 -17 40 -1 69 -8 64 -16 -5 -8 7 -21 27 -28 20 -8 60 -30 89 -50 29 -20 66 -37 81 -37 16 0 46 -16 67 -35 56 -50 198 -145 218 -145 9 0 37 -20 62 -45 26 -25 135 -126 243 -225 109 -99 227 -228 264 -287 50 -80 72 -100 85 -80 14 20 17 17 13 -13 -3 -23 33 -101 79 -175 47 -74 85 -143 85 -155 0 -11 9 -20 20 -20 12 0 12 19 -1 53 -28 73 -9 82 23 10 27 -61 78 -65 78 -5 0 49 -123 295 -213 424 -540 782 -1521 1197 -2549 1078z"/> <path d="M2240 4602 c0 -10 11 -22 25 -27 18 -6 15 -18 -10 -43 -45 -44 -24 -86 22 -45 18 16 56 33 83 38 l50 8 -50 22 c-27 12 -41 23 -30 24 27 2 -34 40 -65 41 -14 0 -25 -8 -25 -18z"/> <path d="M2554 4433 c-6 -16 -43 -34 -82 -41 -78 -15 -172 -100 -172 -157 0 -52 -27 -42 -66 24 -59 100 -327 149 -408 76 -22 -19 -62 -35 -89 -35 -89 0 -426 -63 -447 -84 -22 -22 429 -9 548 15 43 9 63 7 55 -5 -15 -25 55 -90 142 -134 36 -18 65 -44 65 -58 0 -13 14 -50 30 -81 29 -56 -1 -155 -37 -120 -7 8 -13 1 -13 -15 0 -15 -27 -46 -60 -68 -33 -22 -60 -58 -60 -80 -1 -33 -4 -35 -20 -10 -17 26 -19 26 -20 -2 0 -17 -18 -48 -40 -68 -22 -20 -40 -48 -40 -62 0 -16 -13 -22 -31 -15 -17 7 -28 3 -25 -8 9 -30 -390 -365 -436 -365 -71 0 -346 -336 -349 -427 -2 -42 -2 -42 -21 -3 -16 34 -17 32 -11 -16 4 -31 -3 -67 -16 -81 -14 -13 -22 -41 -19 -62 3 -21 0 -48 -7 -59 -17 -28 -19 -112 -2 -112 27 0 3 -67 -26 -71 -53 -8 -100 47 -111 129 -6 45 -17 82 -24 82 -6 0 -12 99 -12 220 0 121 7 220 15 220 8 0 15 30 15 66 0 134 238 494 326 494 9 0 39 27 67 60 28 33 64 60 80 60 16 0 24 9 17 20 -7 11 1 20 16 20 16 0 34 18 40 40 6 22 24 40 40 40 16 0 67 49 114 110 46 60 93 105 102 99 10 -6 18 3 18 20 0 17 9 31 21 31 11 0 58 36 103 79 l82 79 -66 -9 c-304 -38 -767 -473 -988 -928 -83 -169 -126 -211 -70 -67 12 31 40 119 61 196 21 77 52 170 69 206 23 49 25 73 9 93 -12 14 -16 43 -8 63 7 21 6 31 -3 23 -9 -8 -18 -31 -19 -51 -2 -20 -36 -100 -77 -178 -181 -350 -198 -460 -187 -1226 11 -777 65 -977 398 -1470 143 -212 235 -398 235 -476 0 -131 699 -339 1110 -331 77 2 113 6 80 10 -137 18 -167 32 -100 48 55 13 53 14 -26 17 -59 1 -82 9 -72 25 10 16 -2 20 -38 13 -29 -6 -48 -3 -43 6 6 9 -13 23 -41 30 -60 15 -67 109 -16 213 15 31 52 152 82 270 53 206 57 215 105 207 137 -21 389 -15 415 11 67 67 85 34 155 -283 20 -88 44 -177 55 -199 45 -90 39 -283 -7 -210 -12 19 -18 21 -19 4 0 -14 -16 -25 -36 -25 -20 0 -54 -13 -75 -29 -22 -17 -61 -30 -89 -31 -40 0 -44 -5 -20 -20 23 -15 16 -20 -30 -21 l-60 -2 50 -20 c161 -65 802 93 1160 286 158 85 399 249 401 273 8 95 23 231 44 404 83 689 2 2334 -126 2537 -18 28 -20 28 -11 -7 27 -110 34 -199 14 -170 -12 17 -22 45 -22 63 0 57 -175 383 -259 484 -196 236 -532 413 -846 447 -82 8 -130 25 -166 59 -56 52 -159 63 -175 20z m249 -112 c84 -37 202 -120 173 -121 -7 0 -46 19 -85 42 -40 23 -88 38 -108 33 -19 -5 -96 -1 -169 9 -110 14 -143 12 -179 -13 -55 -39 -116 -44 -78 -6 89 89 310 117 446 56z m-622 -122 c35 -34 58 -67 51 -73 -6 -7 0 -26 13 -43 14 -16 -13 -3 -59 31 -46 33 -112 72 -145 86 -81 33 -77 60 8 60 51 0 87 -17 132 -61z m569 -51 c88 -7 187 -14 220 -16 175 -10 581 -347 708 -588 62 -117 209 -667 233 -869 16 -135 -20 -163 -40 -30 -24 160 -34 195 -55 195 -11 0 -15 14 -8 31 6 17 -1 35 -18 42 -17 6 -30 36 -30 69 0 32 -10 58 -22 58 -16 0 -15 9 2 30 23 28 14 39 -27 32 -10 -2 -14 23 -9 56 5 33 1 55 -8 50 -9 -6 -16 -1 -16 10 0 98 -214 401 -262 371 -15 -9 -19 -7 -11 6 18 30 -29 44 -72 21 -20 -10 -46 -12 -58 -4 -46 28 -4 -178 43 -216 25 -20 38 -36 30 -36 -8 0 5 -32 28 -71 23 -39 42 -84 42 -100 0 -15 12 -23 28 -17 19 7 36 -14 53 -66 46 -142 198 -280 200 -180 0 42 1 42 23 5 17 -29 17 -41 -1 -47 -13 -4 -18 -16 -11 -27 7 -11 -6 -8 -29 6 -48 30 -69 17 -51 -32 11 -27 17 -29 30 -8 14 21 17 19 18 -7 0 -19 18 -44 40 -56 45 -24 105 -128 85 -148 -7 -8 -29 16 -48 52 -36 68 -55 29 -20 -40 25 -49 44 -164 28 -163 -8 1 -41 57 -74 125 -32 68 -145 255 -251 414 -107 160 -264 416 -350 569 -226 403 -337 506 -577 538 -167 22 -161 77 7 61 39 -4 142 -12 230 -20z m-183 -112 c119 -83 129 -139 21 -122 l-72 12 52 -52 c54 -54 71 -160 31 -185 -25 -15 -255 96 -318 154 -50 47 -13 117 61 117 20 0 52 27 71 60 42 72 70 74 154 16z m-315 -317 c3 -27 15 -112 26 -189 12 -77 21 -147 22 -155 0 -8 18 -15 39 -15 29 0 36 -9 27 -35 -10 -29 -7 -30 15 -10 21 19 22 30 3 49 -13 13 -24 54 -24 91 0 37 -9 85 -21 107 -22 40 -5 137 18 106 7 -10 31 -21 53 -25 56 -10 79 -32 180 -176 105 -150 114 -161 225 -286 106 -119 106 -121 -14 -121 -119 0 -166 -38 -157 -128 l6 -62 244 -2 244 -2 102 -86 c122 -102 119 -109 -33 -81 -64 11 -139 17 -167 13 -27 -5 -108 -14 -180 -22 -150 -15 -300 -74 -300 -118 0 -32 45 -25 94 13 28 21 87 27 326 34 132 4 155 9 104 21 -85 20 -109 43 -33 31 33 -5 116 -14 185 -20 209 -18 339 -118 358 -278 6 -45 23 -93 39 -105 23 -19 23 -26 -3 -48 -21 -17 -30 -63 -30 -147 -1 -360 -270 -813 -574 -968 -512 -259 -837 -248 -1337 45 -211 123 -464 581 -484 876 -8 124 -18 162 -48 180 -50 32 -47 54 8 54 43 0 45 8 50 183 8 352 121 424 645 413 l290 -6 -3 79 c-4 127 -143 176 -378 133 -64 -12 -119 -22 -123 -22 -3 0 -6 -12 -6 -27 0 -28 -198 -162 -215 -145 -5 5 94 116 221 246 127 130 279 295 337 366 59 72 114 133 123 137 8 4 33 42 56 86 44 87 80 93 90 16z m620 -115 c21 -41 43 -78 50 -84 7 -5 51 -73 99 -150 90 -143 233 -346 282 -397 136 -145 337 -410 337 -445 0 -15 8 -28 17 -28 54 0 137 -448 96 -516 -5 -8 -23 -61 -40 -119 -33 -112 -13 -149 22 -40 33 102 30 -1 -3 -111 -15 -50 -22 -97 -16 -103 6 -6 2 -11 -9 -11 -17 0 -29 -67 -35 -193 -1 -24 -10 -38 -20 -32 -10 6 -13 -14 -7 -47 8 -37 -2 -83 -26 -128 -20 -38 -38 -61 -38 -50 0 11 12 45 28 75 16 30 21 55 11 55 -21 0 -68 -138 -53 -154 7 -6 -5 -35 -25 -64 -20 -28 -32 -65 -26 -82 5 -16 2 -23 -7 -15 -20 19 -95 -139 -79 -166 7 -10 3 -19 -9 -19 -43 0 -103 -127 -93 -200 5 -38 5 -54 -1 -35 -17 61 -39 38 -78 -83 -21 -66 -43 -116 -49 -112 -6 4 -23 -17 -36 -46 -13 -30 -43 -76 -66 -104 l-41 -50 11 64 c11 65 244 567 272 586 8 6 22 33 30 60 9 28 49 122 90 210 79 168 180 478 189 580 3 33 21 150 40 260 58 336 -1 528 -233 752 -75 72 -136 139 -136 147 0 20 -101 99 -133 104 -62 9 -146 97 -136 142 7 31 -18 89 -76 180 -122 193 -129 205 -175 303 -71 154 -3 215 72 66z m1118 -464 c16 -82 35 -177 42 -210 26 -114 32 -1074 9 -1300 -49 -466 -193 -1006 -303 -1135 -38 -44 -38 -44 0 65 123 352 229 745 184 680 -12 -16 -22 -46 -22 -66 0 -23 -9 -31 -23 -22 -16 10 -20 4 -12 -15 6 -17 0 -57 -15 -89 -14 -32 -46 -103 -70 -158 -136 -314 -305 -590 -359 -590 -57 0 12 247 109 391 51 76 110 206 110 241 0 15 8 28 18 28 29 0 176 477 210 681 93 569 109 1318 32 1579 -23 80 -26 187 -6 207 18 19 62 -110 96 -287z m-1000 -60 c8 0 9 13 3 29 -7 19 -1 25 18 18 16 -6 29 -17 28 -24 -1 -20 -57 -115 -58 -98 -2 35 -7 48 -45 105 l-39 60 39 -45 c22 -25 47 -45 54 -45z m-1690 -46 c0 -4 -32 -42 -71 -85 -181 -202 -238 -461 -182 -834 21 -141 -8 -153 -45 -20 -55 194 -35 457 48 639 47 105 250 347 250 300z m-588 -639 c15 -42 28 -92 28 -113 0 -20 18 -59 40 -87 22 -28 40 -66 40 -83 0 -18 8 -32 18 -32 11 0 34 -47 53 -105 19 -58 42 -114 51 -124 10 -10 18 -35 18 -55 0 -20 10 -36 21 -36 12 0 20 -16 18 -35 -12 -113 3 -225 29 -225 38 0 92 165 92 284 0 53 7 96 16 96 20 0 84 -196 84 -256 0 -52 40 -144 63 -144 9 0 17 -12 17 -27 0 -15 18 -43 40 -63 22 -20 40 -43 40 -51 0 -9 41 -104 92 -212 127 -271 227 -648 225 -847 l0 -110 -32 70 c-18 39 -30 78 -28 87 2 9 -7 47 -20 85 -27 72 -81 97 -63 28 9 -33 1 -40 -45 -40 -65 0 -189 77 -189 117 0 17 -12 23 -33 15 -27 -11 -30 -3 -20 47 10 49 6 57 -21 47 -22 -9 -28 -5 -18 10 29 47 -10 168 -51 158 -20 -6 -37 -2 -37 9 0 11 -9 14 -19 8 -11 -7 -14 -25 -8 -42 6 -16 6 -29 -1 -29 -18 0 -296 580 -360 751 -72 192 -111 596 -55 561 18 -11 2 176 -16 188 -9 6 -20 100 -27 210 -9 163 -7 183 10 110 11 -49 33 -124 48 -165z m2555 -1250 c-29 -52 -61 -105 -70 -117 -9 -12 -11 -28 -3 -35 7 -7 2 -13 -11 -13 -12 0 -23 -14 -23 -31 0 -17 -17 -64 -38 -105 -71 -138 -142 -362 -142 -450 0 -28 -9 -57 -20 -64 -11 -7 -20 -49 -20 -95 0 -45 -4 -77 -9 -72 -27 27 -18 621 10 638 16 10 21 19 12 19 -10 0 -6 14 8 31 14 18 43 27 63 22 20 -5 36 0 36 11 0 35 229 356 254 356 4 0 -17 -43 -47 -95z m-1666 -155 c1 -22 7 -29 12 -15 23 57 72 18 127 -100 33 -69 57 -108 55 -87 -3 21 8 42 23 48 17 5 22 0 14 -13 -8 -13 -8 -33 -1 -45 10 -16 19 -14 31 5 10 17 16 -7 14 -63 -1 -49 0 -166 4 -260 13 -351 -4 -387 -50 -108 -48 290 -188 702 -190 558 l0 -60 -49 81 c-26 44 -54 107 -61 140 l-13 59 41 -50 c23 -27 42 -68 43 -90z m1734 3 c-27 -24 -61 -79 -76 -123 -15 -44 -38 -93 -51 -110 -12 -16 -19 -41 -14 -55 5 -14 0 -25 -12 -25 -31 0 -27 52 7 86 16 16 24 35 17 41 -6 7 -2 24 9 38 12 14 30 57 39 95 11 39 31 70 47 70 16 0 32 22 36 49 6 45 9 46 27 13 16 -29 10 -46 -29 -79z"/> <path d="M1589 2700 c-100 -11 -167 -35 -267 -95 -40 -24 36 -16 159 16 82 21 203 37 269 36 l120 -2 -146 -16 c-136 -14 -183 -28 -162 -47 4 -4 67 1 138 11 279 41 497 -14 554 -139 46 -101 52 -119 30 -86 -14 20 -23 4 -33 -60 -20 -128 -32 -160 -52 -147 -11 6 -19 -7 -19 -30 0 -22 -10 -41 -21 -41 -12 0 -16 -9 -9 -20 65 -106 -164 -253 -358 -231 -67 8 -142 15 -167 15 -25 0 -45 7 -45 16 0 9 -18 12 -40 6 -43 -11 -56 30 -21 65 12 12 12 30 0 49 -15 24 -18 22 -19 -14 0 -24 -15 -58 -33 -76 -60 -60 -2 -80 263 -87 362 -9 429 41 520 388 30 118 49 157 51 107 1 -16 8 -11 18 12 93 231 -281 421 -730 370z"/> <path d="M2505 2527 c-28 -50 -35 -152 -14 -232 l14 -55 -113 0 c-61 0 -112 -8 -112 -18 0 -10 62 -15 139 -12 138 7 138 7 151 -51 22 -97 107 -256 155 -287 60 -40 215 -65 215 -35 0 13 -22 23 -49 23 -130 0 -231 105 -264 275 -6 35 -19 60 -28 54 -18 -11 -55 158 -63 291 -6 83 -8 87 -31 47z"/> <path d="M2715 2489 c-41 -28 -75 -66 -75 -86 0 -19 -10 -45 -22 -57 -14 -14 -15 -26 -1 -34 11 -7 26 7 34 31 7 23 50 78 95 120 92 88 78 100 -31 26z"/> <path d="M1630 2412 c-79 -34 -110 -74 -122 -155 -36 -244 412 -386 573 -182 151 193 -192 450 -451 337z m40 -142 c0 -60 -78 -54 -87 7 -5 38 2 45 40 40 31 -5 47 -20 47 -47z m250 -17 c0 -10 16 -30 35 -45 55 -40 -10 -92 -129 -102 -92 -7 -185 25 -132 47 13 5 19 23 13 38 -7 18 1 29 21 29 18 0 32 8 32 19 0 10 16 22 35 27 56 14 125 7 125 -13z"/> <path d="M2136 2363 c19 -44 37 -77 40 -74 14 14 -30 139 -51 146 -15 5 -11 -21 11 -72z"/> <path d="M2870 2412 c-92 -40 -190 -162 -190 -235 0 -267 544 -257 611 11 46 180 -210 316 -421 224z m340 -122 c0 -26 -16 -42 -45 -46 -45 -7 -65 49 -31 83 27 27 76 2 76 -37z m-140 -54 c66 -77 -9 -143 -138 -122 -93 15 -123 50 -89 104 33 53 187 65 227 18z"/> <path d="M2210 1961 c-73 -162 -95 -171 -427 -171 -161 0 -320 7 -353 16 -56 15 -55 14 10 -18 57 -28 121 -33 350 -29 391 6 471 3 544 -23 48 -18 82 -17 140 1 42 14 112 25 156 25 44 1 217 1 384 1 288 -1 460 30 417 72 -6 7 -35 -1 -64 -17 -39 -20 -130 -28 -335 -28 -319 0 -361 15 -427 155 -20 44 -47 73 -65 70 -47 -9 -48 -75 0 -119 73 -68 -49 -113 -234 -86 -81 12 -83 14 -62 61 12 27 29 49 37 49 28 0 40 65 17 93 -35 42 -49 34 -88 -52z"/> <path d="M3300 1899 c0 -13 -13 -18 -30 -12 -16 7 -30 2 -30 -9 0 -11 -16 -19 -35 -17 -117 12 -253 -3 -217 -24 85 -49 398 5 340 59 -19 18 -28 19 -28 3z"/> <path d="M2727 1690 c-17 -46 44 -93 102 -78 28 7 46 20 39 30 -6 10 -19 13 -30 7 -10 -6 -23 2 -30 18 -16 43 -68 57 -81 23z"/> <path d="M2150 1551 c-50 -31 -97 -45 -125 -38 -26 7 -45 2 -45 -10 0 -71 621 -111 776 -50 73 29 69 74 -5 56 -32 -9 -62 3 -101 39 -81 76 -378 77 -500 3z m418 -3 c59 -23 33 -44 -79 -63 -96 -17 -246 -1 -288 30 -48 35 285 65 367 33z"/> <path d="M2262 1378 c-26 -10 -63 -14 -82 -8 -53 17 -40 -47 18 -89 126 -89 316 -76 435 29 97 86 48 96 -101 20 -118 -60 -191 -63 -254 -12 l-47 38 89 20 c53 11 69 20 40 21 -27 0 -72 -8 -98 -19z"/> <path d="M1038 4087 c-14 -16 -36 -24 -51 -19 -17 7 -27 -4 -27 -26 0 -21 -20 -50 -44 -66 -28 -19 -45 -51 -45 -88 -1 -42 -10 -57 -35 -55 -27 2 -30 -7 -15 -45 10 -26 13 -61 6 -78 -27 -72 37 -20 106 85 42 63 105 145 141 182 36 37 66 79 66 93 0 38 -75 50 -102 17z"/> <path d="M10 1541 c85 -366 609 -956 1048 -1180 94 -48 94 -42 -3 70 -146 169 -214 232 -237 218 -15 -10 -19 -7 -10 8 8 13 -27 63 -82 118 -158 158 -251 267 -366 432 -234 334 -276 384 -320 384 -35 0 -40 -8 -30 -50z"/> <path d="M4712 1571 c5 -13 1 -46 -10 -72 -19 -48 -19 -48 -21 11 -1 42 -7 52 -19 33 -9 -15 -12 -46 -6 -68 6 -25 2 -36 -10 -29 -22 14 -93 -73 -115 -142 -8 -25 -23 -39 -36 -31 -14 9 -17 2 -10 -18 7 -18 5 -35 -4 -39 -39 -14 -351 -552 -332 -572 23 -22 346 327 451 487 187 285 232 431 141 455 -24 6 -35 1 -29 -15z"/> </g> </svg> 